<svg xmlns="http://www.w3.org/2000/svg" width="7" height="12" viewBox="0 0 7 12">
  <metadata><?xpacket begin="﻿" id="W5M0MpCehiHzreSzNTczkc9d"?>
<x:xmpmeta xmlns:x="adobe:ns:meta/" x:xmptk="Adobe XMP Core 5.6-c142 79.160924, 2017/07/13-01:06:39        ">
   <rdf:RDF xmlns:rdf="http://www.w3.org/1999/02/22-rdf-syntax-ns#">
      <rdf:Description rdf:about=""/>
   </rdf:RDF>
</x:xmpmeta>
                                                                                                    
                                                                                                    
                                                                                                    
                                                                                                    
                                                                                                    
                                                                                                    
                                                                                                    
                                                                                                    
                                                                                                    
                                                                                                    
                                                                                                    
                                                                                                    
                                                                                                    
                                                                                                    
                                                                                                    
                                                                                                    
                                                                                                    
                                                                                                    
                                                                                                    
                                                                                                    
                           
<?xpacket end="w"?></metadata>
<defs>
    <style>
      .cls-1 {
        fill: #e3242b;
        fill-rule: evenodd;
      }
    </style>
  </defs>
  <path class="cls-1" d="M1231.98,559.726a3.568,3.568,0,0,1-.4,1.331,9.613,9.613,0,0,0-1.25,3.516s-0.04.4-.04,0.427a0.6,0.6,0,0,1-.59.533h-2.4a0.6,0.6,0,0,1-.59-0.555s-0.04-.4-0.04-0.422a8.578,8.578,0,0,0-1.2-3.434l-0.06-.128,0.02,0.061a3.3,3.3,0,0,1-.41-1.337s-0.02-.3-0.02-0.306a3.355,3.355,0,0,1,1.03-2.413,3.513,3.513,0,0,1,2.47-1,3.565,3.565,0,0,1,.99.138,3.471,3.471,0,0,1,1.48.863,3.359,3.359,0,0,1,1.03,2.42S1231.98,559.718,1231.98,559.726Zm-1.24-2.5a3.225,3.225,0,0,0-4.48,0,3.042,3.042,0,0,0-.92,2.173s0.01,0.288.01,0.292a3.15,3.15,0,0,0,.38,1.214l0.04,0.06a8.9,8.9,0,0,1,1.23,3.567v0s0.04,0.369.04,0.383c0.07,0.281.2,0.282,0.26,0.282h1.04v-0.662c0-.633-0.01-1.387-0.07-2.069a1.717,1.717,0,0,1-.51-0.24l-0.08-.055a1.472,1.472,0,0,1-.75-1.242,0.955,0.955,0,0,1,.04-0.3,0.579,0.579,0,0,1,.5-0.486,1.047,1.047,0,0,1,.87.906,2.791,2.791,0,0,1,.15.563,2.634,2.634,0,0,1,.93-1.686,0.628,0.628,0,0,1,.57.019,0.54,0.54,0,0,1,.31.452v0.043a3.062,3.062,0,0,1-1.16,1.675,3.411,3.411,0,0,1-.49.3c-0.01.023-.01,0.041-0.02,0.064,0,0-.01.075-0.01,0.089,0.05,0.66.05,1.369,0.05,1.966l0.01,0.663h1.02c0.06,0,.19,0,0.25-0.26,0,0,.05-0.405.05-0.389a10.006,10.006,0,0,1,1.28-3.656,3.1,3.1,0,0,0,.37-1.2l0.01-.291A3.049,3.049,0,0,0,1230.74,557.231Zm-2.51,4.884a4.184,4.184,0,0,0-.2-0.937,0.9,0.9,0,0,0-.54-0.7,0.289,0.289,0,0,0-.2.242,0.689,0.689,0,0,0-.03.206,1.192,1.192,0,0,0,.6.972l0.09,0.056A1.7,1.7,0,0,0,1228.23,562.115Zm0.51-.126c0.07-.045.13-0.082,0.23-0.149a2.846,2.846,0,0,0,.99-1.385v-0.024a0.19,0.19,0,0,0-.13-0.183,0.289,0.289,0,0,0-.27-0.014C1229.35,560.334,1229.04,560.733,1228.74,561.989Zm-1.75,3.956a0.294,0.294,0,0,1,.3-0.293h2.42a0.649,0.649,0,0,0,.3.879,0.293,0.293,0,1,0,0,.586,0.3,0.3,0,0,1-.3.294h-2.42a0.65,0.65,0,0,0-.3-0.88A0.293,0.293,0,1,0,1226.99,565.945Zm0.63,1.083h1.33a0.166,0.166,0,1,0,0-.332h-1.33A0.166,0.166,0,1,0,1227.62,567.028Zm-0.03-.662h1.82a0.166,0.166,0,1,0,0-.331h-1.82A0.166,0.166,0,1,0,1227.59,566.366ZM1228.5,568a1.211,1.211,0,0,1-.97-0.478h1.93A1.177,1.177,0,0,1,1228.5,568Z" transform="translate(-1225 -556)"/>
</svg>
