<svg xmlns="http://www.w3.org/2000/svg" width="20" height="18" viewBox="0 0 20 18">
  <metadata><?xpacket begin="﻿" id="W5M0MpCehiHzreSzNTczkc9d"?>
<x:xmpmeta xmlns:x="adobe:ns:meta/" x:xmptk="Adobe XMP Core 5.6-c142 79.160924, 2017/07/13-01:06:39        ">
   <rdf:RDF xmlns:rdf="http://www.w3.org/1999/02/22-rdf-syntax-ns#">
      <rdf:Description rdf:about=""/>
   </rdf:RDF>
</x:xmpmeta>
                                                                                                    
                                                                                                    
                                                                                                    
                                                                                                    
                                                                                                    
                                                                                                    
                                                                                                    
                                                                                                    
                                                                                                    
                                                                                                    
                                                                                                    
                                                                                                    
                                                                                                    
                                                                                                    
                                                                                                    
                                                                                                    
                                                                                                    
                                                                                                    
                                                                                                    
                                                                                                    
                           
<?xpacket end="w"?></metadata>
<defs>
    <style>
      .cls-1 {
        fill: #fff;
        fill-rule: evenodd;
      }
    </style>
  </defs>
  <g id="white">
    <path id="Rounded_Rectangle_2" data-name="Rounded Rectangle 2" class="cls-1" d="M7.939,1.62H9.758a0.784,0.784,0,0,1,.788.78V15.6a0.784,0.784,0,0,1-.788.78H7.939a1.568,1.568,0,0,1-1.576-1.56V3.18A1.568,1.568,0,0,1,7.939,1.62Zm-0.005.9H9.518a1.023,1.023,0,0,1,1.028,1.017V14.463A1.023,1.023,0,0,1,9.518,15.48H7.934a1.023,1.023,0,0,1-1.028-1.017V3.537A1.023,1.023,0,0,1,7.934,2.52Z"/>
    <path class="cls-1" d="M7.817,9.324h4.408l-1.667,1.656h1.178L13.82,8.91,11.736,6.841H10.557L12.224,8.5H7.817V9.324Z"/>
  </g>
</svg>
