<svg xmlns="http://www.w3.org/2000/svg" width="96" height="103" viewBox="0 0 96 103">
  <metadata><?xpacket begin="﻿" id="W5M0MpCehiHzreSzNTczkc9d"?>
<x:xmpmeta xmlns:x="adobe:ns:meta/" x:xmptk="Adobe XMP Core 5.6-c142 79.160924, 2017/07/13-01:06:39        ">
   <rdf:RDF xmlns:rdf="http://www.w3.org/1999/02/22-rdf-syntax-ns#">
      <rdf:Description rdf:about=""/>
   </rdf:RDF>
</x:xmpmeta>
                                                                                                    
                                                                                                    
                                                                                                    
                                                                                                    
                                                                                                    
                                                                                                    
                                                                                                    
                                                                                                    
                                                                                                    
                                                                                                    
                                                                                                    
                                                                                                    
                                                                                                    
                                                                                                    
                                                                                                    
                                                                                                    
                                                                                                    
                                                                                                    
                                                                                                    
                                                                                                    
                           
<?xpacket end="w"?></metadata>
<defs>
    <style>
      .cls-1 {
        fill: #fff;
        fill-rule: evenodd;
      }
    </style>
  </defs>
  <path id="Rounded_Rectangle_1_copy" data-name="Rounded Rectangle 1 copy" class="cls-1" d="M5190.17,812.927a34.17,34.17,0,0,1,0,47.97,33.356,33.356,0,0,1-47.5,0,34.17,34.17,0,0,1,0-47.97A33.358,33.358,0,0,1,5190.17,812.927Zm-46.29,51.964c3.16,2.323,2.57,6.985-.81,10.232L5111.82,905.1c-0.91.864-3.18,1.15-5.17,0.665-2.05-.5-3.17-1.66-2.42-2.623l27.41-35.209C5134.78,863.9,5140.51,862.415,5143.88,864.891ZM5167.5,812a24.5,24.5,0,1,1-24.5,24.5A24.5,24.5,0,0,1,5167.5,812Z" transform="translate(-5104 -803)"/>
</svg>
