<svg xmlns="http://www.w3.org/2000/svg" width="10" height="15" viewBox="0 0 10 15">
  <defs>
    <style>
      .cls-1 {
        fill: #fff;
        fill-rule: evenodd;
      }
    </style>
  </defs>
  <path class="cls-1" d="M795.483,349.011a3.96,3.96,0,0,1-1.394,1.2,36.672,36.672,0,0,1,1.7,3.786s0,0,0,0l-1.895-3.69c-0.023.011-.045,0.024-0.068,0.034,0.672,1.316,1.322,2.585,1.71,3.316-0.419-.656-1.166-1.933-1.9-3.235a4.5,4.5,0,0,1-1.143.3,3.107,3.107,0,0,1-3.27-1.462c-0.291-.606-0.007-0.871.453-1.525l-1.127-4.368a3.067,3.067,0,0,1-1.952-.8,4.568,4.568,0,0,0,2.88-.206c0.1,0.155.38,0.595,0.415,0.663a4.435,4.435,0,0,0,1.013-.561v0l-0.209-.768a3.688,3.688,0,0,0,1.082-1.151,2.4,2.4,0,0,1-.431,1.517s1.869,2.668,2.641,3.79c0.864,0.093,1.511.017,1.812,0.643A2.484,2.484,0,0,1,795.483,349.011Zm-4.51-6.424a4.643,4.643,0,0,1-1.026.564l2.538,5.58a3.775,3.775,0,0,0,.582-0.226,2.635,2.635,0,0,0,.924-0.744Zm4.4,6.009-1.281-.728a2.776,2.776,0,0,1-.953.759,4.008,4.008,0,0,1-.611.237l-0.03,1.419v0.011a5.476,5.476,0,0,0,1.019-.316,4.685,4.685,0,0,0,1.862-1.362Zm-5.562-6.531a4.494,4.494,0,0,1-3.451.292,0.916,0.916,0,0,1-.278-0.325,0.878,0.878,0,0,1-.075-0.449,3.316,3.316,0,0,1,2.2-2.134,3.644,3.644,0,0,1,3.166-.127,0.921,0.921,0,0,1,.308.351,0.861,0.861,0,0,1,.075.45c0,0.024,0,.055,0,0.082A3.865,3.865,0,0,1,789.808,342.065Z" transform="translate(-786 -339)"/>
</svg>
