<svg xmlns="http://www.w3.org/2000/svg" width="15" height="15" viewBox="0 0 15 15">
  <defs>
    <style>
      .cls-1 {
        fill: #fff;
        fill-rule: evenodd;
      }
    </style>
  </defs>
  <path class="cls-1" d="M447,346.386h-2.356a5.127,5.127,0,0,0-5-4.982V339h-0.251v2.4a5.126,5.126,0,0,0-4.986,4.981H432v0.25h2.4a5.128,5.128,0,0,0,4.988,5.01V354h0.251v-2.35a5.13,5.13,0,0,0,5-5.011H447v-0.25Zm-7.61-4.731v2.376a2.5,2.5,0,0,0-2.36,2.355h2.361v-2.357h0.25v2.357h2.377a2.5,2.5,0,0,0-2.377-2.356v-2.376a4.877,4.877,0,0,1,4.753,4.732h-2.37v0.25h-2.383v2.39h-0.25v-2.39h-2.364v-0.25h-2.373A4.876,4.876,0,0,1,439.387,341.655Zm-4.737,4.981h2.376a2.5,2.5,0,0,0,2.361,2.384V351.4A4.877,4.877,0,0,1,434.65,346.636Zm4.988,4.761V349.02a2.5,2.5,0,0,0,2.379-2.384h2.375A4.878,4.878,0,0,1,439.638,351.4Z" transform="translate(-432 -339)"/>
</svg>
