<svg xmlns="http://www.w3.org/2000/svg" width="122.59" height="95.87" viewBox="0 0 122.59 95.87">
  <metadata><?xpacket begin="﻿" id="W5M0MpCehiHzreSzNTczkc9d"?>
<x:xmpmeta xmlns:x="adobe:ns:meta/" x:xmptk="Adobe XMP Core 5.6-c142 79.160924, 2017/07/13-01:06:39        ">
   <rdf:RDF xmlns:rdf="http://www.w3.org/1999/02/22-rdf-syntax-ns#">
      <rdf:Description rdf:about=""/>
   </rdf:RDF>
</x:xmpmeta>
                                                                                                    
                                                                                                    
                                                                                                    
                                                                                                    
                                                                                                    
                                                                                                    
                                                                                                    
                                                                                                    
                                                                                                    
                                                                                                    
                                                                                                    
                                                                                                    
                                                                                                    
                                                                                                    
                                                                                                    
                                                                                                    
                                                                                                    
                                                                                                    
                                                                                                    
                                                                                                    
                           
<?xpacket end="w"?></metadata>
<defs>
    <style>
      .cls-1 {
        fill: #fbfbfb;
        fill-rule: evenodd;
      }
    </style>
  </defs>
  <path class="cls-1" d="M3780.99,2216.13l12.36,33.12,33.74-.21,4.76,8.26s-28.96,16.73-48.48-6.87c0.36-.21.57-0.33,0.57-0.33l-8.31-14.46s-0.18.1-.51,0.3c-10.22-28.44,18.43-44.99,18.43-44.99l2.15,3.45Zm2.38,34.3c-5.04,2.97-42.86,25.26-57.33,33.61-15.51,8.96-24.17-5.81-8.56-14.83,14.61-8.43,52.78-30.47,57.64-33.27a48.308,48.308,0,0,0,3.62,7.79A49.71,49.71,0,0,0,3783.37,2250.43Zm-61.33,21.1-8.37,1.63-1.03,8.46,7.73,3.6,5.8-6.24Z" transform="translate(-3709.25 -2190.94)"/>
</svg>
